<?xml version="1.0" standalone="no"?>
<!DOCTYPE svg PUBLIC "-//W3C//DTD SVG 20010904//EN"
 "http://www.w3.org/TR/2001/REC-SVG-20010904/DTD/svg10.dtd">
<svg version="1.0" xmlns="http://www.w3.org/2000/svg"
 width="2037.000000pt" height="767.000000pt" viewBox="0 0 2037.000000 767.000000"
 preserveAspectRatio="xMidYMid meet">

<g transform="translate(0.000000,767.000000) scale(0.100000,-0.100000)"
fill="#1565c0" stroke="none">
<path d="M3285 7656 c-87 -17 -152 -40 -230 -79 -97 -48 -2656 -1527 -2705
-1562 -57 -42 -156 -145 -199 -208 -46 -67 -105 -199 -127 -282 -18 -67 -19
-142 -19 -1690 0 -1820 -6 -1666 75 -1842 63 -135 155 -251 265 -333 68 -50
2640 -1534 2740 -1581 128 -59 199 -73 360 -73 206 1 281 26 545 179 69 41
660 382 1314 759 745 430 1215 707 1258 742 92 74 158 159 218 279 93 186 85
13 85 1870 0 1856 8 1683 -84 1870 -58 116 -131 210 -224 283 -37 29 -592 357
-1254 738 -653 377 -1244 718 -1313 759 -174 101 -216 121 -317 151 -109 32
-282 41 -388 20z m285 -217 c28 -6 76 -21 105 -33 29 -12 651 -366 1381 -786
1322 -761 1328 -765 1410 -846 66 -65 89 -96 122 -165 72 -151 67 -27 67
-1774 0 -1294 -2 -1590 -14 -1635 -37 -151 -145 -305 -273 -388 -52 -33 -971
-565 -2420 -1400 -301 -173 -335 -186 -503 -187 -107 0 -142 4 -200 22 -51 16
-425 227 -1403 792 -734 423 -1357 788 -1386 810 -98 74 -183 206 -217 339
-18 73 -19 126 -19 1647 0 1533 0 1574 20 1649 36 141 123 272 232 349 52 37
2592 1508 2696 1561 95 49 286 70 402 45z"/>
<path d="M990 3850 l0 -1390 680 0 680 0 0 260 0 260 -355 0 -355 0 0 1130 0
1130 -325 0 -325 0 0 -1390z"/>
<path d="M2455 5227 c-3 -7 -4 -125 -3 -262 l3 -250 308 -3 307 -2 0 265 0
265 -305 0 c-238 0 -307 -3 -310 -13z"/>
<path d="M3230 4975 l0 -266 208 7 c218 7 341 -2 437 -33 217 -69 325 -218
325 -446 0 -51 -6 -114 -14 -142 -44 -166 -168 -276 -363 -322 -67 -15 -124
-18 -413 -18 l-335 0 -3 423 -2 422 -308 -2 -307 -3 -3 -1067 -2 -1068 310 0
310 0 2 383 3 382 410 6 c372 5 419 7 511 27 381 82 640 266 769 545 88 190
114 455 65 671 -86 385 -380 643 -837 737 -95 20 -147 23 -435 27 l-328 4 0
-267z"/>
<path d="M4894 4603 c4 -10 17 -56 29 -103 17 -70 21 -115 22 -256 l0 -171 49
-29 c68 -41 159 -142 194 -216 113 -239 70 -567 -96 -735 -126 -128 -322 -182
-514 -142 -123 26 -266 125 -325 226 -19 32 -30 42 -42 38 -38 -16 -203 -54
-276 -65 -44 -6 -138 -15 -209 -18 l-128 -7 49 -95 c194 -380 584 -600 1061
-600 221 0 391 38 577 130 317 155 523 433 580 781 97 597 -265 1131 -850
1253 -44 10 -91 19 -104 22 -19 4 -22 2 -17 -13z"/>
<path d="M3970 4405 c-95 -66 -215 -193 -276 -292 -45 -71 -113 -223 -114
-250 0 -19 113 -17 208 3 153 32 250 102 293 212 32 81 31 232 0 314 -12 32
-25 60 -29 62 -4 2 -41 -20 -82 -49z"/>
<path d="M7378 6364 c-32 -17 -58 -62 -58 -99 0 -34 24 -80 52 -99 20 -14 644
-16 6473 -16 5829 0 6453 2 6473 16 70 49 66 161 -8 199 -26 13 -731 15 -6467
15 -5675 -1 -6441 -3 -6465 -16z"/>
<path d="M9034 5791 c-63 -29 -89 -72 -89 -151 0 -53 5 -71 24 -99 49 -68 171
-92 258 -50 86 42 122 163 70 240 -48 73 -173 101 -263 60z"/>
<path d="M7730 4945 l0 -695 510 0 510 0 0 130 0 130 -350 0 -350 0 0 565 0
565 -160 0 -160 0 0 -695z"/>
<path d="M10128 5311 c-65 -21 -134 -59 -162 -90 -30 -33 -36 -26 -36 39 l0
60 -145 0 -145 0 0 -535 0 -535 155 0 155 0 0 303 c0 338 4 363 65 435 44 51
102 74 185 74 102 0 150 -27 193 -107 21 -38 22 -54 25 -372 l3 -333 155 0
155 0 -4 373 c-3 307 -6 380 -19 418 -51 147 -130 227 -266 269 -84 26 -233
27 -314 1z"/>
<path d="M11390 5315 c-89 -25 -157 -63 -224 -126 -105 -98 -156 -219 -156
-369 0 -155 44 -266 144 -365 73 -72 138 -109 242 -135 169 -43 343 -11 450
83 l37 32 -6 -78 c-13 -183 -109 -260 -320 -258 -111 1 -187 19 -287 69 -41
20 -78 38 -81 40 -7 3 -119 -200 -119 -216 0 -17 157 -90 245 -113 59 -16 121
-23 235 -26 134 -4 167 -2 244 16 201 48 313 154 374 354 13 44 16 136 19 575
l4 522 -145 0 -146 0 0 -65 c0 -36 -3 -65 -6 -65 -3 0 -28 20 -56 44 -73 66
-139 88 -278 92 -81 3 -131 -1 -170 -11z m340 -262 c94 -41 149 -126 150 -227
0 -80 -17 -129 -61 -180 -51 -58 -124 -89 -209 -89 -125 0 -212 46 -259 138
-35 66 -36 179 -4 240 35 66 100 116 178 136 49 13 157 4 205 -18z"/>
<path d="M14250 5323 c-84 -16 -155 -39 -227 -74 l-83 -40 55 -108 54 -109 68
34 c87 44 198 68 278 59 126 -14 191 -65 209 -167 l7 -38 -133 0 c-329 0 -478
-51 -545 -187 -24 -50 -28 -69 -27 -138 1 -96 18 -138 80 -205 84 -90 242
-135 390 -112 98 15 158 42 212 95 l42 41 0 -62 0 -62 146 0 146 0 -4 363 c-4
338 -5 366 -25 426 -44 131 -130 216 -263 262 -54 19 -90 23 -210 25 -80 1
-156 0 -170 -3z m358 -672 c4 -61 -3 -85 -40 -126 -50 -58 -101 -79 -188 -80
-91 0 -136 21 -164 79 -17 36 -18 43 -5 79 27 77 87 96 289 93 l105 -1 3 -44z"/>
<path d="M15565 5312 c-171 -52 -295 -170 -346 -331 -29 -90 -29 -240 -1 -328
67 -210 272 -352 509 -353 117 0 213 30 297 95 l49 37 -7 -73 c-17 -165 -87
-239 -244 -258 -128 -16 -303 22 -405 86 -22 14 -43 21 -47 16 -4 -4 -33 -53
-63 -108 -64 -115 -67 -105 48 -161 133 -64 207 -78 415 -78 175 0 189 1 265
27 173 58 274 167 321 348 15 55 18 135 21 577 l4 512 -150 0 -151 0 0 -66 0
-66 -41 37 c-23 20 -71 51 -108 68 -61 29 -76 31 -186 34 -93 2 -134 -1 -180
-15z m347 -255 c48 -20 105 -73 131 -121 31 -58 31 -184 0 -242 -47 -88 -136
-137 -253 -137 -200 0 -324 160 -268 345 13 45 77 122 119 143 70 37 199 42
271 12z"/>
<path d="M17060 5315 c-202 -56 -359 -217 -399 -413 -52 -250 67 -495 291
-602 239 -114 571 -78 721 78 l28 29 -83 87 -83 87 -50 -35 c-123 -87 -322
-85 -434 3 -39 31 -96 126 -85 142 3 5 184 9 403 9 l399 0 6 35 c9 44 -1 143
-21 215 -44 162 -157 284 -320 347 -58 22 -87 27 -193 29 -89 3 -141 0 -180
-11z m246 -230 c63 -18 125 -71 153 -130 37 -80 53 -75 -239 -75 -201 0 -260
3 -260 13 0 6 11 35 24 63 54 116 187 169 322 129z"/>
<path d="M18527 5311 c-59 -19 -123 -56 -164 -94 l-23 -20 0 61 0 62 -145 0
-145 0 0 -535 0 -535 155 0 155 0 0 303 c0 331 5 367 56 434 67 89 243 103
317 25 53 -55 57 -86 57 -438 l0 -324 159 0 160 0 3 328 c3 313 4 329 25 367
42 79 109 117 203 117 71 0 121 -21 152 -63 45 -61 48 -84 48 -425 l0 -324
161 0 161 0 -5 358 c-3 288 -7 368 -21 415 -58 207 -193 307 -416 307 -143 0
-255 -40 -345 -125 l-43 -40 -46 48 c-28 29 -71 60 -113 79 -61 29 -78 32
-178 35 -88 3 -122 -1 -168 -16z"/>
<path d="M8977 5313 c-4 -3 -7 -244 -7 -535 l0 -528 155 0 155 0 0 535 0 535
-148 0 c-82 0 -152 -3 -155 -7z"/>
<path d="M12534 5305 c-4 -9 -4 -170 -1 -358 5 -370 10 -410 64 -510 37 -66
121 -141 187 -166 172 -64 335 -49 471 44 l65 45 0 -55 0 -55 150 0 150 0 0
535 0 535 -154 0 -155 0 -4 -312 c-4 -348 -6 -361 -70 -434 -75 -85 -231 -100
-315 -29 -65 54 -66 66 -72 435 l-5 335 -153 3 c-131 2 -153 0 -158 -13z"/>
<path d="M16700 2995 l0 -735 155 0 155 0 0 735 0 735 -155 0 -155 0 0 -735z"/>
<path d="M7730 2956 l0 -696 160 0 160 0 0 189 0 189 213 5 c172 4 227 9 290
26 206 55 343 191 376 375 51 278 -92 500 -374 582 -51 15 -117 18 -442 21
l-383 4 0 -695z m685 422 c123 -24 195 -107 195 -223 0 -196 -116 -261 -446
-253 l-109 3 -3 230 c-1 126 0 235 2 242 7 17 279 18 361 1z"/>
<path d="M11567 3563 c-4 -3 -7 -64 -7 -135 l0 -128 -80 0 -80 0 0 -115 0
-115 79 0 79 0 4 -277 c4 -259 5 -282 26 -334 12 -30 38 -74 57 -97 76 -88
241 -136 391 -113 77 11 174 46 174 63 0 5 -13 43 -30 86 -16 42 -34 90 -39
105 -10 27 -11 27 -36 11 -13 -9 -50 -18 -82 -21 -47 -3 -64 0 -91 17 -57 35
-62 62 -62 325 l0 235 135 0 135 0 0 115 0 114 -132 3 -133 3 -3 133 -3 132
-148 0 c-81 0 -151 -3 -154 -7z"/>
<path d="M9540 3321 c-198 -53 -351 -205 -395 -392 -68 -292 84 -563 369 -655
103 -34 272 -38 376 -10 196 53 345 199 395 386 19 72 19 210 0 285 -26 100
-63 165 -139 240 -79 79 -161 125 -267 150 -88 20 -256 19 -339 -4z m312 -268
c96 -54 148 -167 134 -295 -16 -152 -105 -246 -245 -256 -176 -12 -292 97
-295 276 -1 101 17 162 66 217 64 73 120 96 220 91 51 -2 79 -10 120 -33z"/>
<path d="M11059 3317 c-72 -25 -139 -66 -170 -105 l-19 -25 0 72 0 71 -150 0
-150 0 0 -535 0 -535 154 0 154 0 4 298 c3 284 4 299 26 347 48 105 114 146
245 153 l87 4 0 139 0 139 -57 0 c-33 0 -86 -10 -124 -23z"/>
<path d="M14183 3325 c-246 -69 -403 -294 -379 -545 16 -177 113 -325 264
-403 98 -50 152 -62 277 -61 124 1 186 19 275 80 l50 34 0 -58 c0 -110 -44
-187 -134 -235 -37 -20 -56 -22 -181 -22 -129 1 -146 3 -215 29 -41 16 -92 40
-113 53 -48 30 -46 32 -116 -99 l-51 -96 48 -30 c117 -72 289 -112 476 -112
144 0 235 18 331 64 131 62 214 172 252 334 16 69 18 131 18 572 l0 495 -147
3 -148 3 0 -67 0 -66 -41 37 c-23 20 -71 51 -108 68 -61 29 -76 31 -186 34
-83 2 -136 -2 -172 -12z m313 -250 c137 -41 212 -185 170 -329 -33 -114 -133
-178 -275 -177 -90 0 -158 28 -210 87 -44 51 -61 100 -61 181 0 73 36 151 87
190 76 58 191 77 289 48z"/>
<path d="M15670 3321 c-200 -55 -346 -198 -395 -388 -18 -68 -19 -191 -4 -265
38 -180 182 -332 373 -394 68 -22 100 -27 196 -27 194 -1 315 46 436 167 107
108 154 224 154 381 0 258 -168 470 -421 530 -88 20 -256 19 -339 -4z m311
-268 c65 -37 104 -90 125 -173 42 -166 -38 -333 -179 -371 -69 -19 -170 -6
-225 27 -178 110 -172 426 11 521 54 28 80 33 149 29 51 -2 79 -10 119 -33z"/>
<path d="M12450 2973 c0 -266 4 -371 14 -408 52 -199 177 -299 393 -320 122
-12 270 34 340 106 16 16 31 29 36 29 4 0 7 -27 7 -60 l0 -60 145 0 145 0 0
535 0 535 -155 0 -155 0 0 -292 c0 -350 -6 -385 -80 -459 -121 -121 -326 -77
-370 80 -6 21 -10 172 -10 354 l0 317 -155 0 -155 0 0 -357z"/>
<path d="M7374 1486 c-29 -29 -34 -41 -34 -80 0 -36 6 -52 29 -78 l29 -33
6442 -3 c5745 -2 6444 0 6470 13 74 38 78 150 8 199 -20 14 -643 16 -6466 16
l-6444 0 -34 -34z"/>
</g>
</svg>
