<svg xmlns="http://www.w3.org/2000/svg" width="128" height="128" viewBox="0 0 33.867 33.867"><g style="stroke-width:1.05559"><path d="M66.513 34.548 54.616 27.68a3.464 3.464 0 0 1-1.732-3V10.942a3.464 3.464 0 0 1 1.732-3l11.897-6.869a3.464 3.464 0 0 1 3.464 0l11.897 6.869a3.464 3.464 0 0 1 1.732 3v13.737a3.464 3.464 0 0 1-1.732 3l-11.897 6.87a3.464 3.464 0 0 1-3.464 0Z" style="fill:#005f99;fill-opacity:1;stroke-width:10.5559;stroke-linecap:round;stroke-linejoin:round" transform="matrix(.94734 0 0 .94734 -47.718 .06)"/><path d="M68.245.61v17.2l-14.897 8.601a3.464 3.464 0 0 0 1.268 1.268l11.897 6.869a3.464 3.464 0 0 0 1.732.464V17.811L83.142 9.21a3.464 3.464 0 0 0-1.268-1.268L69.977 1.073A3.464 3.464 0 0 0 68.245.61Z" style="fill:#0182c6;fill-opacity:1;stroke:none;stroke-width:.279291px;stroke-linecap:butt;stroke-linejoin:miter;stroke-opacity:1" transform="matrix(.94734 0 0 .94734 -47.718 .06)"/></g><path d="M101.575 26.555v12.169h5.91v-2.295h-3.094v-9.874Zm11.597 0-1.84.02v2.295l1.683-.02c1.721-.02 2.59.782 2.59 2.12 0 1.322-.869 2.103-2.59 2.103H110.67v-3.702h-2.712v9.352h2.712V35.37h2.503c3.25 0 5.285-1.686 5.285-4.398 0-2.73-2.034-4.416-5.285-4.416Zm-5.215.02v2.295h2.712v-2.295ZM118.6 29.28c.183.517.28 1.085.28 1.69 0 .24-.016.472-.046.698.815.37 1.356 1.205 1.356 2.379 0 1.616-1.025 2.59-2.381 2.59-.92 0-1.696-.449-2.1-1.242-.746.261-1.6.395-2.538.395h-.201c.698 1.862 2.527 3.072 4.839 3.072 2.972 0 5.128-2 5.128-4.815 0-2.56-1.78-4.445-4.337-4.767Zm-3.678.703a4.539 4.539 0 0 0-2.067 2.667h.16c.797 0 1.341-.183 1.672-.459.33-.275.497-.653.497-1.22 0-.417-.089-.737-.262-.988Z" style="font-weight:700;font-size:18.35px;line-height:1;font-family:Montserrat;-inkscape-font-specification:&quot;Montserrat Bold&quot;;letter-spacing:1.14687px;word-spacing:0;fill:#fff;fill-opacity:1;stroke-width:10;stroke-linecap:round;stroke-linejoin:round" transform="translate(-95.322 -15.775)"/></svg>