<svg xmlns="http://www.w3.org/2000/svg" width="128" height="128" viewBox="0 0 33.867 33.867"><g style="fill:#000;stroke-width:1.09298"><path d="M108.637.137a4.01 4.01 0 0 0-2.006.537L94.734 7.543a4.012 4.012 0 0 0-2.005 3.473v13.736c0 1.432.765 2.759 2.005 3.475l11.897 6.867a4.015 4.015 0 0 0 4.012 0l11.896-6.867a4.015 4.015 0 0 0 2.006-3.475V11.016a4.012 4.012 0 0 0-2.006-3.473L110.643.673a4.01 4.01 0 0 0-2.006-.536Zm0 1.092c.503 0 1.007.13 1.459.39l11.896 6.87a2.917 2.917 0 0 1 1.46 2.527v13.736a2.917 2.917 0 0 1-1.46 2.527l-11.896 6.87a2.916 2.916 0 0 1-2.918 0l-11.897-6.87a2.917 2.917 0 0 1-1.459-2.527V11.016c0-1.044.556-2.006 1.46-2.528l11.896-6.869c.451-.26.955-.39 1.459-.39Z" style="baseline-shift:baseline;display:inline;overflow:visible;opacity:1;vector-effect:none;fill:#000;stroke-linecap:round;stroke-linejoin:round;enable-background:accumulate;stop-color:#000;stop-opacity:1" transform="matrix(.91479 0 0 .91508 -82.446 .568)"/><g style="fill:#000;stroke-width:1.09298"><path d="M77.405 135.53v2.422l1.776-.021c1.817-.022 2.734.825 2.734 2.238 0 1.395-.917 2.22-2.734 2.22H73.842v5.964h2.862v-3.541h2.643c3.431 0 5.578-1.78 5.578-4.643 0-2.88-2.147-4.661-5.578-4.661Z" style="font-weight:700;font-size:18.35px;line-height:1;font-family:Montserrat;-inkscape-font-specification:&quot;Montserrat Bold&quot;;letter-spacing:1.14687px;word-spacing:0;fill:#000;fill-opacity:1;stroke-width:10.9298;stroke-linecap:round;stroke-linejoin:round" transform="matrix(.91479 0 0 .91508 -54.767 -113.011)"/><path d="M73.842 148.353h2.862v-9.872h-2.862ZM67.105 148.353h6.238v-2.422h-3.265v-10.423h-2.973ZM73.842 135.53v2.422h2.862v-2.423Z" style="font-weight:700;font-size:18.35px;line-height:1;font-family:Montserrat;-inkscape-font-specification:&quot;Montserrat Bold&quot;;letter-spacing:1.14687px;word-spacing:0;fill:#000;stroke-width:10.9298;stroke-linecap:round;stroke-linejoin:round" transform="matrix(.91479 0 0 .91508 -54.767 -113.011)"/><path d="M81.194 139.128a4.792 4.792 0 0 0-2.182 2.815h.17c.84 0 1.414-.193 1.763-.484.35-.29.525-.69.525-1.29 0-.439-.093-.776-.276-1.041ZM85.076 138.386c.194.545.295 1.144.295 1.784 0 .252-.016.498-.048.737.86.39 1.432 1.271 1.432 2.51 0 1.707-1.083 2.734-2.514 2.734-.971 0-1.79-.473-2.217-1.31-.788.275-1.689.417-2.678.417h-.213c.738 1.966 2.667 3.242 5.108 3.242 3.138 0 5.413-2.11 5.413-5.083 0-2.702-1.88-4.691-4.578-5.031Z" style="font-weight:700;font-size:18.35px;line-height:1;font-family:Montserrat;-inkscape-font-specification:&quot;Montserrat Bold&quot;;letter-spacing:1.14687px;word-spacing:0;fill:#000;fill-opacity:1;stroke-width:10.9298;stroke-linecap:round;stroke-linejoin:round" transform="matrix(.91479 0 0 .91508 -54.767 -113.011)"/></g></g></svg>