<svg xmlns="http://www.w3.org/2000/svg" width="325.925" height="123.18" viewBox="0 0 86.234 32.591"><g style="stroke-width:1.05559"><path d="M66.513 34.548 54.616 27.68a3.464 3.464 0 0 1-1.732-3V10.942a3.464 3.464 0 0 1 1.732-3l11.897-6.869a3.464 3.464 0 0 1 3.464 0l11.897 6.869a3.464 3.464 0 0 1 1.732 3v13.737a3.464 3.464 0 0 1-1.732 3l-11.897 6.87a3.464 3.464 0 0 1-3.464 0Z" style="fill:#005f99;fill-opacity:1;stroke-width:10.5559;stroke-linecap:round;stroke-linejoin:round" transform="matrix(.94734 0 0 .94734 -50.1 -.577)"/><path d="M68.245.61v17.2l-14.897 8.601a3.464 3.464 0 0 0 1.268 1.268l11.897 6.869a3.464 3.464 0 0 0 1.732.464V17.811L83.142 9.21a3.464 3.464 0 0 0-1.268-1.268L69.977 1.073A3.464 3.464 0 0 0 68.245.61Z" style="fill:#0182c6;fill-opacity:1;stroke:none;stroke-width:.279291px;stroke-linecap:butt;stroke-linejoin:miter;stroke-opacity:1" transform="matrix(.94734 0 0 .94734 -50.1 -.577)"/><path d="M56.97 11.315V24.16h6.24v-2.422h-3.266V11.315Zm12.242 0-1.941.02v2.424l1.776-.022c1.816-.021 2.734.826 2.734 2.24 0 1.394-.918 2.219-2.734 2.219H66.57v-3.908h-2.863v9.872h2.863V20.62h2.642c3.431 0 5.579-1.78 5.579-4.643 0-2.88-2.148-4.661-5.579-4.661Zm-5.505.02v2.424h2.863v-2.423Zm11.235 2.857c.193.546.295 1.145.295 1.785 0 .252-.017.498-.048.737.86.39 1.432 1.27 1.432 2.51 0 1.706-1.083 2.734-2.514 2.734-.971 0-1.79-.473-2.217-1.31-.788.275-1.689.416-2.679.416H69c.737 1.966 2.667 3.243 5.108 3.243 3.137 0 5.413-2.11 5.413-5.083 0-2.702-1.88-4.692-4.578-5.032Zm-3.882.743a4.791 4.791 0 0 0-2.182 2.815h.17c.84 0 1.414-.193 1.763-.484.35-.291.525-.69.525-1.29 0-.439-.093-.777-.276-1.041Z" style="font-weight:700;font-size:18.35px;line-height:1;font-family:Montserrat;-inkscape-font-specification:&quot;Montserrat Bold&quot;;letter-spacing:1.14687px;word-spacing:0;fill:#fff;fill-opacity:1;stroke-width:10.5559;stroke-linecap:round;stroke-linejoin:round" transform="matrix(.94734 0 0 .94734 -50.1 -.577)"/></g><path d="M62.44 24.94a.5.5 0 0 0-.5.5.5.5 0 0 0 .5.5h54.25a.5.5 0 0 0 .5-.5.5.5 0 0 0-.5-.5Zm7.164 2.407c-.489 0-.817.32-.817.733s.328.733.817.733c.489 0 .818-.32.818-.758 0-.404-.33-.708-.818-.708Zm-5.917.733v5.897h4.322v-1.112h-2.957V28.08Zm10.815 1.297c-.615 0-1.145.211-1.5.599v-.531h-1.254v4.532h1.314v-2.24c0-.835.455-1.222 1.086-1.222.582 0 .919.337.919 1.07v2.392h1.314v-2.595c0-1.381-.809-2.005-1.879-2.005Zm5.311 0c-1.255 0-2.266.868-2.266 2.19 0 1.324 1.011 2.19 2.266 2.19.59 0 1.087-.184 1.432-.563v.193c0 .818-.404 1.239-1.331 1.239-.581 0-1.213-.202-1.6-.514l-.523.944c.53.412 1.365.623 2.224.623 1.635 0 2.544-.775 2.544-2.46v-3.774h-1.247v.58c-.345-.437-.867-.648-1.499-.648Zm12.113 0c-.725 0-1.458.194-1.955.548l.472.918c.329-.26.826-.42 1.306-.42.708 0 1.044.328 1.044.892H91.75c-1.382 0-1.946.556-1.946 1.356 0 .784.632 1.373 1.693 1.373.666 0 1.137-.218 1.382-.631v.564h1.23v-2.586c0-1.374-.8-2.014-2.182-2.014Zm5.614 0c-1.255 0-2.266.868-2.266 2.19 0 1.324 1.01 2.19 2.266 2.19.59 0 1.086-.184 1.432-.563v.193c0 .818-.404 1.239-1.33 1.239-.582 0-1.214-.202-1.602-.514l-.522.944c.53.412 1.365.623 2.224.623 1.634 0 2.544-.775 2.544-2.46v-3.774H99.04v.58c-.345-.437-.867-.648-1.5-.648Zm6.313 0c-1.382 0-2.418.978-2.418 2.334 0 1.348 1.02 2.333 2.587 2.333.817 0 1.449-.252 1.87-.733l-.7-.758c-.311.295-.657.439-1.137.439-.69 0-1.17-.346-1.297-.91h3.429c.008-.11.025-.253.025-.354 0-1.458-1.028-2.35-2.359-2.35Zm6.179 0c-.582 0-1.087.202-1.424.59v-.522h-1.255v4.532h1.314v-2.275c0-.808.413-1.187.994-1.187.548 0 .86.337.86 1.07v2.392h1.314v-2.275c0-.808.412-1.187 1.002-1.187.53 0 .86.337.86 1.07v2.392h1.314v-2.595c0-1.381-.776-2.005-1.854-2.005-.682 0-1.272.279-1.634.742-.32-.497-.86-.742-1.491-.742Zm-41.085.068v4.532h1.314v-4.532Zm15.073 0v2.56c0 1.399.8 2.04 1.938 2.04.556 0 1.061-.211 1.407-.607v.539h1.247v-4.532h-1.314v2.24c0 .835-.439 1.222-1.045 1.222-.582 0-.919-.337-.919-1.095v-2.367Zm19.841.927c.59 0 1.02.37 1.112.943h-2.232c.093-.581.522-.943 1.12-.943Zm-23.787.084c.691 0 1.188.446 1.188 1.112 0 .665-.497 1.112-1.188 1.112-.69 0-1.196-.447-1.196-1.112 0-.666.505-1.112 1.196-1.112Zm17.727 0c.69 0 1.188.446 1.188 1.112 0 .665-.497 1.112-1.188 1.112s-1.196-.447-1.196-1.112c0-.666.505-1.112 1.196-1.112Zm-5.909 1.626h.901v.463c-.151.413-.53.615-.968.615-.463 0-.742-.22-.742-.548 0-.303.194-.53.81-.53Zm9.77 4.069v6.25h1.315v-6.25Zm-37.975.354V42.4h1.365v-1.625h1.187c1.576 0 2.561-.818 2.561-2.132 0-1.323-.985-2.14-2.56-2.14Zm16.21.362v1.103h-.699v1.011h.7v1.862c0 1.078.622 1.626 1.692 1.626.405 0 .801-.093 1.07-.287l-.353-.926a.886.886 0 0 1-.531.168c-.354 0-.564-.21-.564-.598v-1.845h1.128v-1.01h-1.128v-1.104Zm-14.845.75h1.111c.834 0 1.256.378 1.256 1.027 0 .64-.422 1.02-1.256 1.02h-1.111Zm7.038.185c-1.44 0-2.494.969-2.494 2.333 0 1.365 1.053 2.334 2.494 2.334 1.44 0 2.485-.969 2.485-2.334 0-1.364-1.045-2.333-2.485-2.333Zm6.44 0c-.7 0-1.24.227-1.56.665v-.598h-1.255v4.532h1.314v-2.14c0-.867.481-1.263 1.206-1.263.1 0 .185.009.294.017Zm13.118 0c-1.256 0-2.266.868-2.266 2.19 0 1.323 1.01 2.19 2.266 2.19.59 0 1.087-.185 1.432-.564v.194c0 .817-.404 1.238-1.331 1.238-.581 0-1.213-.202-1.601-.514l-.522.944c.53.413 1.364.623 2.224.623 1.634 0 2.544-.775 2.544-2.46V37.87h-1.247v.582c-.345-.438-.868-.65-1.5-.65Zm6.389 0c-1.44 0-2.494.969-2.494 2.333 0 1.365 1.053 2.334 2.494 2.334 1.44 0 2.485-.969 2.485-2.334 0-1.364-1.045-2.333-2.485-2.333Zm-14.396.067v2.561c0 1.399.8 2.039 1.938 2.039.556 0 1.061-.21 1.406-.607v.54h1.247v-4.533h-1.314v2.241c0 .834-.438 1.222-1.044 1.222-.581 0-.918-.337-.918-1.095v-2.368ZM72.09 38.88c.657 0 1.154.472 1.154 1.255 0 .784-.497 1.256-1.154 1.256-.657 0-1.163-.472-1.163-1.256 0-.783.506-1.255 1.163-1.255Zm19.82 0c.69 0 1.187.447 1.187 1.112 0 .666-.497 1.112-1.188 1.112-.69 0-1.196-.446-1.196-1.112 0-.665.505-1.112 1.196-1.112Zm6.127 0c.657 0 1.154.472 1.154 1.255 0 .784-.497 1.256-1.154 1.256-.657 0-1.163-.472-1.163-1.256 0-.783.506-1.255 1.163-1.255Zm-35.525 6.63a.5.5 0 0 0-.5.5.5.5 0 0 0 .5.5h54.178a.5.5 0 0 0 .5-.5.5.5 0 0 0-.5-.5Z" style="font-weight:700;font-size:8.42439px;line-height:1;font-family:Montserrat;-inkscape-font-specification:&quot;Montserrat Bold&quot;;letter-spacing:.264583px;word-spacing:0;fill:#000;stroke-width:.300001;stroke-linecap:round;stroke-linejoin:round" transform="translate(-30.955 -19.43)"/></svg>