<svg xmlns="http://www.w3.org/2000/svg" width="118.367" height="176.659" viewBox="0 0 31.318 46.741"><g style="fill:#fff"><g style="fill:#fff;stroke-width:1.09298"><path d="M108.637.137a4.01 4.01 0 0 0-2.006.537L94.734 7.543a4.012 4.012 0 0 0-2.005 3.473v13.736c0 1.432.765 2.759 2.005 3.475l11.897 6.867a4.015 4.015 0 0 0 4.012 0l11.896-6.867a4.015 4.015 0 0 0 2.006-3.475V11.016a4.012 4.012 0 0 0-2.006-3.473L110.643.673a4.01 4.01 0 0 0-2.006-.536Zm0 1.092c.503 0 1.007.13 1.459.39l11.896 6.87a2.917 2.917 0 0 1 1.46 2.527v13.736a2.917 2.917 0 0 1-1.46 2.527l-11.896 6.87a2.916 2.916 0 0 1-2.918 0l-11.897-6.87a2.917 2.917 0 0 1-1.459-2.527V11.016c0-1.044.556-2.006 1.46-2.528l11.896-6.869c.451-.26.955-.39 1.459-.39Z" style="baseline-shift:baseline;display:inline;overflow:visible;opacity:1;vector-effect:none;fill:#fff;stroke-linecap:round;stroke-linejoin:round;enable-background:accumulate;stop-color:#000;stop-opacity:1" transform="matrix(.91479 0 0 .91508 -83.72 -.125)"/><g style="fill:#fff;stroke-width:1.09298"><path d="M77.405 135.53v2.422l1.776-.021c1.817-.022 2.734.825 2.734 2.238 0 1.395-.917 2.22-2.734 2.22H73.842v5.964h2.862v-3.541h2.643c3.431 0 5.578-1.78 5.578-4.643 0-2.88-2.147-4.661-5.578-4.661Z" style="font-weight:700;font-size:18.35px;line-height:1;font-family:Montserrat;-inkscape-font-specification:&quot;Montserrat Bold&quot;;letter-spacing:1.14687px;word-spacing:0;fill:#fff;fill-opacity:1;stroke-width:10.9298;stroke-linecap:round;stroke-linejoin:round" transform="matrix(.91479 0 0 .91508 -56.042 -113.705)"/><path d="M73.842 148.353h2.862v-9.872h-2.862ZM67.105 148.353h6.238v-2.422h-3.265v-10.423h-2.973ZM73.842 135.53v2.422h2.862v-2.423Z" style="font-weight:700;font-size:18.35px;line-height:1;font-family:Montserrat;-inkscape-font-specification:&quot;Montserrat Bold&quot;;letter-spacing:1.14687px;word-spacing:0;fill:#fff;stroke-width:10.9298;stroke-linecap:round;stroke-linejoin:round" transform="matrix(.91479 0 0 .91508 -56.042 -113.705)"/><path d="M81.194 139.128a4.792 4.792 0 0 0-2.182 2.815h.17c.84 0 1.414-.193 1.763-.484.35-.29.525-.69.525-1.29 0-.439-.093-.776-.276-1.041ZM85.076 138.386c.194.545.295 1.144.295 1.784 0 .252-.016.498-.048.737.86.39 1.432 1.271 1.432 2.51 0 1.707-1.083 2.734-2.514 2.734-.971 0-1.79-.473-2.217-1.31-.788.275-1.689.417-2.678.417h-.213c.738 1.966 2.667 3.242 5.108 3.242 3.138 0 5.413-2.11 5.413-5.083 0-2.702-1.88-4.691-4.578-5.031Z" style="font-weight:700;font-size:18.35px;line-height:1;font-family:Montserrat;-inkscape-font-specification:&quot;Montserrat Bold&quot;;letter-spacing:1.14687px;word-spacing:0;fill:#fff;fill-opacity:1;stroke-width:10.9298;stroke-linecap:round;stroke-linejoin:round" transform="matrix(.91479 0 0 .91508 -56.042 -113.705)"/></g></g><path d="M33.172 152.452a.3.3 0 0 0-.299.298.3.3 0 0 0 .299.301h30.719a.3.3 0 0 0 .3-.3.3.3 0 0 0-.3-.3Zm4.18 1.354c-.277 0-.463.177-.463.405 0 .229.186.406.463.406.276 0 .462-.177.462-.42 0-.223-.186-.39-.462-.39Zm-3.351.405v3.264h2.447v-.616h-1.674v-2.648Zm6.124.719c-.348 0-.649.116-.849.33v-.293h-.711v2.508h.744v-1.24c0-.462.258-.676.616-.676.329 0 .52.186.52.592v1.324h.744v-1.436c0-.764-.458-1.11-1.064-1.11Zm3.007 0c-.71 0-1.283.48-1.283 1.211 0 .732.572 1.213 1.283 1.213.334 0 .615-.103.81-.313v.108c0 .452-.228.685-.753.685-.329 0-.687-.112-.906-.284l-.296.521c.301.229.773.346 1.26.346.925 0 1.44-.43 1.44-1.362v-2.088h-.706v.321c-.195-.242-.491-.358-.849-.358Zm6.86 0c-.411 0-.826.107-1.108.302l.267.508c.186-.144.468-.233.74-.233.4 0 .591.183.591.495h-.591c-.782 0-1.102.307-1.102.75 0 .434.358.76.959.76.377 0 .644-.121.782-.35v.313h.696v-1.431c0-.76-.453-1.114-1.235-1.114Zm3.178 0c-.711 0-1.283.48-1.283 1.211 0 .732.572 1.213 1.283 1.213.334 0 .615-.103.81-.313v.108c0 .452-.228.685-.753.685-.33 0-.687-.112-.906-.284l-.296.521c.3.229.773.346 1.26.346.925 0 1.44-.43 1.44-1.362v-2.088h-.706v.321c-.196-.242-.492-.358-.85-.358Zm3.575 0c-.783 0-1.37.54-1.37 1.291 0 .746.578 1.29 1.465 1.29.463 0 .82-.139 1.06-.404l-.397-.42a.88.88 0 0 1-.644.242c-.391 0-.663-.19-.734-.503h1.941c.005-.06.014-.14.014-.196 0-.806-.582-1.3-1.335-1.3Zm3.498 0c-.329 0-.615.111-.806.326v-.29h-.711v2.509h.744v-1.259c0-.447.234-.657.563-.657.31 0 .487.186.487.592v1.324h.744v-1.259c0-.447.234-.657.568-.657.3 0 .486.186.486.592v1.324h.744v-1.436c0-.764-.439-1.11-1.05-1.11-.386 0-.72.154-.924.41-.182-.274-.487-.41-.845-.41Zm-23.264.037v2.508h.745v-2.508Zm8.535 0v1.417c0 .774.453 1.128 1.097 1.128.315 0 .602-.116.797-.336v.299h.706v-2.508h-.744v1.24c0 .462-.248.676-.592.676-.329 0-.52-.187-.52-.606v-1.31Zm11.235.512c.334 0 .577.206.63.523h-1.264c.052-.322.296-.523.634-.523Zm-13.47.047c.392 0 .674.247.674.615 0 .369-.282.616-.673.616-.391 0-.677-.247-.677-.616 0-.368.286-.615.677-.615Zm10.039 0c.39 0 .672.247.672.615 0 .369-.281.616-.672.616-.392 0-.678-.247-.678-.616 0-.368.286-.615.678-.615Zm-3.346.9h.51v.256c-.086.229-.3.34-.548.34-.263 0-.42-.12-.42-.302 0-.168.11-.294.458-.294Zm9.002 2.252v3.459h.744v-3.46Zm-21.503.196v3.263h.772v-.9h.673c.892 0 1.45-.452 1.45-1.18 0-.731-.558-1.183-1.45-1.183Zm9.179.2v.61h-.396v.56h.396v1.03c0 .597.353.9.959.9.229 0 .453-.051.605-.159l-.2-.512a.509.509 0 0 1-.3.093c-.2 0-.32-.116-.32-.33v-1.022h.64v-.56h-.64v-.61Zm-8.407.414h.63c.473 0 .711.21.711.57 0 .354-.238.564-.71.564h-.63Zm3.986.103c-.816 0-1.413.536-1.413 1.292 0 .755.597 1.291 1.413 1.291.815 0 1.407-.536 1.407-1.291 0-.756-.592-1.292-1.407-1.292Zm3.646 0c-.396 0-.701.126-.883.369v-.332h-.71v2.509h.744v-1.185c0-.48.272-.699.682-.699.057 0 .105.005.167.01Zm7.429 0c-.711 0-1.284.48-1.284 1.212s.573 1.212 1.284 1.212c.333 0 .615-.102.81-.312v.107c0 .452-.229.686-.754.686-.329 0-.687-.112-.906-.285l-.296.522c.3.229.773.345 1.26.345.925 0 1.44-.428 1.44-1.36v-2.09h-.705v.322c-.196-.242-.492-.359-.85-.359Zm3.617 0c-.816 0-1.412.536-1.412 1.292 0 .755.596 1.291 1.412 1.291s1.407-.536 1.407-1.291c0-.756-.591-1.292-1.407-1.292Zm-8.152.037v1.418c0 .774.454 1.128 1.098 1.128.315 0 .6-.117.796-.336v.299h.706v-2.508h-.744v1.24c0 .461-.248.676-.591.676-.33 0-.52-.187-.52-.606v-1.31Zm-6.54.56c.372 0 .653.261.653.695 0 .433-.281.694-.653.694s-.659-.26-.659-.694c0-.434.287-.695.659-.695Zm11.222 0c.392 0 .673.247.673.615s-.281.616-.673.616c-.39 0-.677-.248-.677-.616s.286-.615.677-.615Zm3.47 0c.372 0 .654.261.654.695 0 .433-.282.694-.654.694-.372 0-.658-.26-.658-.694 0-.434.286-.695.658-.695Zm-23.728 3.644a.3.3 0 0 0-.3.301.3.3 0 0 0 .3.3h30.678a.3.3 0 0 0 .3-.3.3.3 0 0 0-.3-.3Z" style="font-weight:700;font-size:4.71572px;line-height:1;font-family:Montserrat;-inkscape-font-specification:&quot;Montserrat Bold&quot;;text-align:center;letter-spacing:.148106px;word-spacing:0;text-anchor:middle;fill:#fff;stroke-width:.3;stroke-linecap:round;stroke-linejoin:round" transform="translate(-32.873 -117.693)"/></g></svg>