<svg xmlns="http://www.w3.org/2000/svg" width="325.925" height="122.765" viewBox="0 0 86.234 32.481"><g style="fill:#fff"><g style="fill:#fff;stroke-width:1.08997"><path d="M46.816 67.703c-.684 0-1.37.178-1.982.531l-11.897 6.87a3.967 3.967 0 0 0-1.982 3.433v13.736c0 1.416.757 2.726 1.983 3.434l11.896 6.87a3.967 3.967 0 0 0 3.965 0l11.896-6.87a3.967 3.967 0 0 0 1.983-3.434V78.537a3.967 3.967 0 0 0-1.983-3.433L48.8 68.234a3.964 3.964 0 0 0-1.983-.53Zm0 1c.512 0 1.024.134 1.483.399l11.896 6.867a2.965 2.965 0 0 1 1.483 2.568v13.736c0 1.06-.565 2.037-1.483 2.567L48.3 101.709c-.918.53-2.047.53-2.965 0l-11.897-6.87a2.962 2.962 0 0 1-1.482-2.566V78.537c0-1.06.565-2.038 1.483-2.568l11.896-6.867c.459-.265.97-.399 1.482-.399Z" style="baseline-shift:baseline;display:inline;overflow:visible;opacity:1;vector-effect:none;fill:#fff;stroke-width:1.08997;stroke-linecap:round;stroke-linejoin:round;enable-background:accumulate;stop-color:#000;stop-opacity:1" transform="matrix(.91746 0 0 .91746 -28.4 -62.115)"/><path d="M35.541 78.91v12.845h6.239v-2.423h-3.266V78.909Zm12.242 0-1.941.02v2.423l1.776-.021c1.816-.022 2.734.826 2.734 2.239 0 1.394-.918 2.22-2.734 2.22H45.14v-3.91h-2.863v9.874h2.863v-3.542h2.642c3.432 0 5.579-1.78 5.579-4.642 0-2.881-2.147-4.662-5.579-4.662Zm-5.505.02v2.423h2.863V78.93Zm11.234 2.857c.194.546.296 1.145.296 1.784 0 .252-.017.499-.048.738.86.39 1.431 1.27 1.431 2.51 0 1.706-1.082 2.734-2.514 2.734-.97 0-1.79-.474-2.216-1.31-.788.275-1.69.416-2.679.416h-.212c.737 1.966 2.667 3.242 5.107 3.242 3.138 0 5.414-2.11 5.414-5.083 0-2.701-1.88-4.69-4.579-5.03Zm-3.881.742a4.792 4.792 0 0 0-2.183 2.816h.17c.841 0 1.415-.194 1.764-.485.35-.29.525-.69.525-1.289 0-.44-.093-.777-.276-1.042Z" style="font-weight:700;font-size:18.35px;line-height:1;font-family:Montserrat;-inkscape-font-specification:&quot;Montserrat Bold&quot;;letter-spacing:1.14687px;word-spacing:0;fill:#fff;fill-opacity:1;stroke-width:10.8997;stroke-linecap:round;stroke-linejoin:round" transform="matrix(.91746 0 0 .91746 -28.4 -62.115)"/></g><path d="M62.44 68.79a.5.5 0 0 0-.5.5.5.5 0 0 0 .5.5h54.25a.5.5 0 0 0 .5-.5.5.5 0 0 0-.5-.5Zm7.164 2.407c-.489 0-.817.32-.817.734 0 .412.328.732.817.732.489 0 .818-.32.818-.758 0-.404-.33-.708-.818-.708Zm-5.917.734v5.896h4.322v-1.112h-2.957v-4.784Zm10.815 1.297c-.615 0-1.145.21-1.5.598v-.531h-1.254v4.532h1.314v-2.24c0-.834.455-1.222 1.086-1.222.582 0 .919.337.919 1.07v2.392h1.314v-2.594c0-1.382-.809-2.005-1.879-2.005Zm5.311 0c-1.255 0-2.266.868-2.266 2.19 0 1.323 1.011 2.19 2.266 2.19.59 0 1.087-.185 1.432-.564v.194c0 .817-.404 1.238-1.331 1.238-.581 0-1.213-.202-1.6-.514l-.523.944c.53.413 1.365.623 2.224.623 1.635 0 2.544-.775 2.544-2.46v-3.774h-1.247v.581c-.345-.438-.867-.648-1.499-.648Zm12.113 0c-.725 0-1.458.194-1.955.547l.472.919c.329-.261.826-.421 1.306-.421.708 0 1.044.328 1.044.893H91.75c-1.382 0-1.946.555-1.946 1.356 0 .783.632 1.373 1.693 1.373.666 0 1.137-.22 1.382-.632v.564h1.23v-2.586c0-1.373-.8-2.013-2.182-2.013Zm5.614 0c-1.255 0-2.266.868-2.266 2.19 0 1.323 1.01 2.19 2.266 2.19.59 0 1.086-.185 1.432-.564v.194c0 .817-.404 1.238-1.33 1.238-.582 0-1.214-.202-1.602-.514l-.522.944c.53.413 1.365.623 2.224.623 1.634 0 2.544-.775 2.544-2.46v-3.774H99.04v.581c-.345-.438-.867-.648-1.5-.648Zm6.313 0c-1.381 0-2.418.977-2.418 2.333 0 1.348 1.02 2.334 2.587 2.334.817 0 1.449-.253 1.87-.733l-.7-.758c-.311.295-.657.438-1.137.438-.69 0-1.17-.346-1.297-.91h3.429c.008-.11.025-.253.025-.354 0-1.457-1.028-2.35-2.359-2.35Zm6.179 0c-.582 0-1.087.202-1.424.59v-.523h-1.255v4.532h1.314v-2.274c0-.81.413-1.188.994-1.188.548 0 .86.337.86 1.07v2.392h1.314v-2.274c0-.81.412-1.188 1.002-1.188.53 0 .86.337.86 1.07v2.392h1.314v-2.594c0-1.382-.776-2.005-1.854-2.005-.682 0-1.272.278-1.634.741-.32-.497-.86-.741-1.491-.741Zm-41.085.067v4.532h1.314v-4.532Zm15.073 0v2.561c0 1.398.8 2.039 1.938 2.039.556 0 1.061-.21 1.407-.607v.54h1.247v-4.533h-1.314v2.241c0 .834-.439 1.222-1.045 1.222-.582 0-.919-.338-.919-1.096v-2.367Zm19.841.927c.59 0 1.02.37 1.112.944h-2.232c.093-.582.522-.944 1.12-.944Zm-23.787.084c.691 0 1.188.447 1.188 1.112 0 .666-.497 1.112-1.188 1.112-.69 0-1.196-.446-1.196-1.112 0-.665.505-1.112 1.196-1.112Zm17.727 0c.69 0 1.188.447 1.188 1.112 0 .666-.497 1.112-1.188 1.112s-1.196-.446-1.196-1.112c0-.665.505-1.112 1.196-1.112Zm-5.909 1.626h.901v.463c-.151.413-.53.615-.968.615-.463 0-.742-.219-.742-.547 0-.304.194-.531.81-.531Zm9.77 4.069v6.25h1.315v-6.25Zm-37.975.354v5.897h1.365v-1.626h1.187c1.576 0 2.561-.817 2.561-2.132 0-1.322-.985-2.14-2.56-2.14Zm16.21.362v1.103h-.699v1.012h.7v1.861c0 1.078.622 1.626 1.692 1.626.405 0 .801-.093 1.07-.286l-.353-.927a.886.886 0 0 1-.531.169c-.354 0-.564-.21-.564-.598v-1.845h1.128V81.82h-1.128v-1.103Zm-14.845.75h1.111c.834 0 1.256.379 1.256 1.027 0 .64-.422 1.02-1.256 1.02h-1.111Zm7.038.185c-1.44 0-2.494.969-2.494 2.334 0 1.364 1.053 2.333 2.494 2.333 1.44 0 2.485-.969 2.485-2.333 0-1.365-1.045-2.334-2.485-2.334Zm6.44 0c-.7 0-1.24.228-1.56.666v-.598h-1.255v4.532h1.314v-2.14c0-.867.481-1.264 1.206-1.264.1 0 .185.009.294.017Zm13.118 0c-1.256 0-2.266.868-2.266 2.19 0 1.323 1.01 2.19 2.266 2.19.59 0 1.087-.185 1.432-.564v.194c0 .817-.404 1.239-1.331 1.239-.581 0-1.213-.203-1.601-.514l-.522.943c.53.413 1.364.623 2.224.623 1.634 0 2.544-.774 2.544-2.46V81.72h-1.247v.581c-.345-.438-.868-.649-1.5-.649Zm6.389 0c-1.44 0-2.494.969-2.494 2.334 0 1.364 1.053 2.333 2.494 2.333 1.44 0 2.485-.969 2.485-2.333 0-1.365-1.045-2.334-2.485-2.334Zm-14.396.068v2.56c0 1.4.8 2.04 1.938 2.04.556 0 1.061-.211 1.406-.607v.539h1.247V81.72h-1.314v2.24c0 .834-.438 1.222-1.044 1.222-.581 0-.918-.337-.918-1.095V81.72ZM72.09 82.73c.657 0 1.154.472 1.154 1.256 0 .783-.497 1.255-1.154 1.255-.657 0-1.163-.472-1.163-1.255 0-.784.506-1.256 1.163-1.256Zm19.82 0c.69 0 1.187.447 1.187 1.113 0 .665-.497 1.112-1.188 1.112-.69 0-1.196-.447-1.196-1.112 0-.666.505-1.113 1.196-1.113Zm6.127 0c.657 0 1.154.472 1.154 1.256 0 .783-.497 1.255-1.154 1.255-.657 0-1.163-.472-1.163-1.255 0-.784.506-1.256 1.163-1.256Zm-35.525 6.63a.5.5 0 0 0-.5.5.5.5 0 0 0 .5.5h54.178a.5.5 0 0 0 .5-.5.5.5 0 0 0-.5-.5Z" style="font-weight:700;font-size:8.42439px;line-height:1;font-family:Montserrat;-inkscape-font-specification:&quot;Montserrat Bold&quot;;letter-spacing:.264583px;word-spacing:0;fill:#fff;stroke-width:.300001;stroke-linecap:round;stroke-linejoin:round" transform="translate(-30.955 -63.335)"/></g></svg>