<svg xmlns="http://www.w3.org/2000/svg" width="118.367" height="176.66" viewBox="0 0 31.318 46.741"><g style="stroke-width:1.05559"><path d="M66.513 34.548 54.616 27.68a3.464 3.464 0 0 1-1.732-3V10.942a3.464 3.464 0 0 1 1.732-3l11.897-6.869a3.464 3.464 0 0 1 3.464 0l11.897 6.869a3.464 3.464 0 0 1 1.732 3v13.737a3.464 3.464 0 0 1-1.732 3l-11.897 6.87a3.464 3.464 0 0 1-3.464 0Z" style="fill:#005f99;fill-opacity:1;stroke-width:10.5559;stroke-linecap:round;stroke-linejoin:round" transform="matrix(.94734 0 0 .94734 -48.992 -.577)"/><path d="M68.245.61v17.2l-14.897 8.601a3.464 3.464 0 0 0 1.268 1.268l11.897 6.869a3.464 3.464 0 0 0 1.732.464V17.811L83.142 9.21a3.464 3.464 0 0 0-1.268-1.268L69.977 1.073A3.464 3.464 0 0 0 68.245.61Z" style="fill:#0182c6;fill-opacity:1;stroke:none;stroke-width:.279291px;stroke-linecap:butt;stroke-linejoin:miter;stroke-opacity:1" transform="matrix(.94734 0 0 .94734 -48.992 -.577)"/><path d="M56.97 11.315V24.16h6.24v-2.422h-3.266V11.315Zm12.242 0-1.941.02v2.424l1.776-.022c1.816-.021 2.734.826 2.734 2.24 0 1.394-.918 2.219-2.734 2.219H66.57v-3.908h-2.863v9.872h2.863V20.62h2.642c3.431 0 5.579-1.78 5.579-4.643 0-2.88-2.148-4.661-5.579-4.661Zm-5.505.02v2.424h2.863v-2.423Zm11.235 2.857c.193.546.295 1.145.295 1.785 0 .252-.017.498-.048.737.86.39 1.432 1.27 1.432 2.51 0 1.706-1.083 2.734-2.514 2.734-.971 0-1.79-.473-2.217-1.31-.788.275-1.689.416-2.679.416H69c.737 1.966 2.667 3.243 5.108 3.243 3.137 0 5.413-2.11 5.413-5.083 0-2.702-1.88-4.692-4.578-5.032Zm-3.882.743a4.791 4.791 0 0 0-2.182 2.815h.17c.84 0 1.414-.193 1.763-.484.35-.291.525-.69.525-1.29 0-.439-.093-.777-.276-1.041Z" style="font-weight:700;font-size:18.35px;line-height:1;font-family:Montserrat;-inkscape-font-specification:&quot;Montserrat Bold&quot;;letter-spacing:1.14687px;word-spacing:0;fill:#fff;fill-opacity:1;stroke-width:10.5559;stroke-linecap:round;stroke-linejoin:round" transform="matrix(.94734 0 0 .94734 -48.992 -.577)"/></g><path d="M287.687 155.202a.3.3 0 0 0-.3.298.3.3 0 0 0 .3.301h30.718a.3.3 0 0 0 .3-.3.3.3 0 0 0-.3-.3Zm4.18 1.354c-.277 0-.463.177-.463.405 0 .229.186.406.462.406.277 0 .463-.177.463-.42 0-.223-.186-.39-.463-.39Zm-3.352.405v3.264h2.448v-.616h-1.674v-2.648Zm6.125.719c-.349 0-.649.116-.85.33v-.293h-.71v2.508h.744v-1.24c0-.462.257-.676.615-.676.33 0 .52.186.52.592v1.324h.744v-1.436c0-.764-.458-1.11-1.063-1.11Zm3.007 0c-.711 0-1.283.48-1.283 1.211 0 .732.572 1.213 1.283 1.213.334 0 .615-.103.81-.313v.108c0 .452-.228.685-.753.685-.33 0-.687-.112-.906-.284l-.296.521c.3.229.773.346 1.26.346.925 0 1.44-.43 1.44-1.362v-2.088h-.706v.321c-.196-.242-.492-.358-.85-.358Zm6.859 0c-.41 0-.826.107-1.107.302l.267.508c.186-.144.468-.233.74-.233.4 0 .59.183.59.495h-.59c-.783 0-1.103.307-1.103.75 0 .434.358.76.96.76.376 0 .643-.121.782-.35v.313h.696v-1.431c0-.76-.453-1.114-1.235-1.114Zm3.178 0c-.71 0-1.283.48-1.283 1.211 0 .732.573 1.213 1.283 1.213.334 0 .616-.103.811-.313v.108c0 .452-.229.685-.753.685-.33 0-.687-.112-.907-.284l-.295.521c.3.229.773.346 1.26.346.924 0 1.44-.43 1.44-1.362v-2.088h-.707v.321c-.195-.242-.49-.358-.849-.358Zm3.575 0c-.782 0-1.369.54-1.369 1.291 0 .746.577 1.29 1.464 1.29.463 0 .821-.139 1.06-.404l-.397-.42a.88.88 0 0 1-.643.242c-.392 0-.663-.19-.735-.503h1.942c.004-.06.014-.14.014-.196 0-.806-.582-1.3-1.336-1.3Zm3.499 0c-.33 0-.616.111-.806.326v-.29h-.711v2.509h.744v-1.259c0-.447.234-.657.563-.657.31 0 .486.186.486.592v1.324h.744v-1.259c0-.447.234-.657.568-.657.3 0 .487.186.487.592v1.324h.744v-1.436c0-.764-.44-1.11-1.05-1.11-.386 0-.72.154-.925.41-.181-.274-.486-.41-.844-.41Zm-23.264.037v2.508h.744v-2.508Zm8.535 0v1.417c0 .774.453 1.128 1.097 1.128.315 0 .601-.116.797-.336v.299h.706v-2.508h-.744v1.24c0 .462-.249.676-.592.676-.33 0-.52-.187-.52-.606v-1.31Zm11.235.512c.334 0 .577.206.63.523h-1.265c.053-.322.296-.523.635-.523Zm-13.47.047c.392 0 .673.247.673.615 0 .369-.281.616-.672.616-.392 0-.677-.247-.677-.616 0-.368.285-.615.677-.615Zm10.038 0c.391 0 .673.247.673.615 0 .369-.282.616-.673.616-.391 0-.677-.247-.677-.616 0-.368.286-.615.677-.615Zm-3.345.9h.51v.256c-.086.229-.3.34-.549.34-.262 0-.42-.12-.42-.302 0-.168.11-.294.459-.294Zm9.002 2.252v3.459h.744v-3.46Zm-21.503.196v3.263h.772v-.9h.673c.892 0 1.45-.452 1.45-1.18 0-.731-.558-1.183-1.45-1.183Zm9.178.2v.61h-.396v.56h.396v1.03c0 .597.354.9.96.9.228 0 .452-.051.605-.159l-.2-.512a.509.509 0 0 1-.3.093c-.201 0-.32-.116-.32-.33v-1.022h.639v-.56h-.64v-.61Zm-8.406.414h.63c.472 0 .71.21.71.57 0 .354-.238.564-.71.564h-.63Zm3.985.103c-.815 0-1.412.536-1.412 1.292 0 .755.597 1.291 1.412 1.291.816 0 1.408-.536 1.408-1.291 0-.756-.592-1.292-1.408-1.292Zm3.647 0c-.396 0-.702.126-.883.369v-.332h-.71v2.509h.744v-1.185c0-.48.272-.699.682-.699.057 0 .105.005.167.01Zm7.428 0c-.71 0-1.283.48-1.283 1.212s.572 1.212 1.283 1.212c.334 0 .615-.102.811-.312v.107c0 .452-.23.686-.754.686-.33 0-.687-.112-.906-.285l-.296.522c.3.229.773.345 1.26.345.925 0 1.44-.428 1.44-1.36v-2.09h-.706v.322c-.195-.242-.491-.359-.849-.359Zm3.618 0c-.816 0-1.412.536-1.412 1.292 0 .755.596 1.291 1.412 1.291.815 0 1.407-.536 1.407-1.291 0-.756-.592-1.292-1.407-1.292Zm-8.152.037v1.418c0 .774.454 1.128 1.098 1.128.315 0 .6-.117.796-.336v.299h.706v-2.508h-.744v1.24c0 .461-.248.676-.591.676-.33 0-.52-.187-.52-.606v-1.31Zm-6.54.56c.371 0 .653.261.653.695 0 .433-.282.694-.654.694-.372 0-.658-.26-.658-.694 0-.434.286-.695.658-.695Zm11.222 0c.391 0 .672.247.672.615s-.28.616-.672.616c-.391 0-.678-.248-.678-.616s.287-.615.678-.615Zm3.47 0c.372 0 .653.261.653.695 0 .433-.281.694-.653.694-.373 0-.659-.26-.659-.694 0-.434.286-.695.659-.695Zm-23.728 3.644a.3.3 0 0 0-.301.301.3.3 0 0 0 .3.3h30.678a.3.3 0 0 0 .3-.3.3.3 0 0 0-.3-.3Z" style="font-weight:700;font-size:4.71572px;line-height:1;font-family:Montserrat;-inkscape-font-specification:&quot;Montserrat Bold&quot;;text-align:center;letter-spacing:.148106px;word-spacing:0;text-anchor:middle;fill:#000;stroke-width:.3;stroke-linecap:round;stroke-linejoin:round" transform="translate(-287.388 -120.443)"/></svg>